<svg id="Camada_1" xmlns="http://www.w3.org/2000/svg" viewBox="0 0 16 16"><style>.st0{fill:#fff}.st1{display:none}.st2,.st3{display:inline;fill:#e0e0e0}.st3{fill:url(#SVGID_1_)}.st4{fill:#e4b227}.st5{fill:#084774}</style><path class="st0" d="M0 0h16v16H0z"/><g class="st1"><path class="st2" d="M13.4 15.5H2.6c-1.1 0-2-.9-2-2V3.8c0-1.1.9-2 2-2h10.7c1.1 0 2 .9 2 2v9.7c.1 1.1-.8 2-1.9 2z"/><linearGradient id="SVGID_1_" gradientUnits="userSpaceOnUse" x1="12.669" y1="16.083" x2="3.331" y2="-.09"><stop offset="0" stop-color="#fff"/><stop offset="1" stop-color="#fafafa"/></linearGradient><path class="st3" d="M13.4 15.4H2.6c-1.1 0-2-.9-2-2V2.6c0-1.1.9-2 2-2h10.7c1.1 0 2 .9 2 2v10.7c.1 1.2-.8 2.1-1.9 2.1z"/></g><path class="st4" d="M3.6 2.6c.4 0 .7.2.9.6.1.2.2.2.4.2h9.7c.3 0 .3 0 .2.3-.2.4-.3.8-.5 1.2-.1.1-.2.1-.3.1H6.2c-.2 0-.3.1-.3.3 0 .2 0 .3.1.5.1.5.3.6.8.7.3 0 .5.1.8.1h4.3c.2 0 .2 0 .2.2-.2.4-.3.9-.5 1.3-.1.1-.1.2-.2.2-1.2 0-2.4 0-3.6.1-.6-.1-.8 0-.9.3 0 .2-.1.4-.1.6 0 .1 0 .1.1.1H15c-.1.2-.2.5-.3.7-.1.3-.3.6-.4.8-.1.1-.1.2-.2.2H6.7c-.3 0-.6 0-.9-.1-.6 0-.8-.3-.9-.8 0-.7.1-1.4.4-2 .1-.1.1-.2-.1-.2-.7-.1-1.1-.5-1.3-1.2-.2-.5-.3-1-.3-1.6 0-.1-.1-.2-.3-.2h-.8s-.1 0-.2-.1L1.1 2.8c.4-.1.7-.1 1-.1.1 0 .1 0 .2-.1h1.3z"/><path class="st5" d="M13.2 13.4c-.6 0-1-.4-1-1 0-.5.4-1 1-1 .5 0 1 .4 1 1s-.4 1-1 1zM6.2 13.4c-.6 0-1-.4-1-1s.4-1 1-1 1 .4 1 1-.4 1-1 1z"/></svg>