<svg id="Camada_1" xmlns="http://www.w3.org/2000/svg" viewBox="0 0 612 138"><style>.st0{fill:#fdfefe}.st1{fill:#084774}.st2{fill:#e4b227}</style><path class="st0" d="M32.2 60.2v-29c0-.8.2-1 1-1h156.5c-.3.4-.7.2-1.1.3-1.9.3-3.9.3-6 .8 2.5 4.2 5 8.2 7.4 12.2.3.5.7.5 1.1.5 1.6 0 3.1.1 4.7 0 1.1-.1 1.4.3 1.5 1.4.3 3.1 1 6.1 1.9 9 1.2 3.8 3.5 6.2 7.5 6.8 1 .2.9.5.5 1.2-1.9 3.7-2.7 7.6-2.3 11.7.3 2.9 1.8 4.4 4.6 4.7 1.8.2 3.6.3 5.4.3 14.2.2 28.5.1 42.7 0 .8 0 1.1-.3 1.4-1l2.1-4.8c.6-1.3 1.1-2.5 1.7-3.9H216.5c-.6 0-.7-.2-.6-.7.2-1.1.5-2.1.7-3.2.4-2 1.2-2.7 3.3-2.9 7-.5 14-.5 21-.3.8 0 1.1-.2 1.4-.9 1-2.5 2-5 3-7.6.5-1.2.5-1.2-.9-1.2h-24.6c-1.5 0-3 0-4.4-.3-2.7-.4-3.9-1.4-4.4-4.1-.2-.9-.3-1.8-.3-2.7-.1-1.1.3-1.4 1.4-1.4h45.1c.9 0 1.3-.2 1.7-1.1.9-2.4 1.9-4.7 2.9-7.1.6-1.5.6-1.5-1-1.5h-56c-1.1 0-1.8-.2-2.4-1.2-1.2-1.8-2.8-2.9-5-3-.1 0-.2-.1-.3-.2h382.4c.9 0 1.1.2 1.1 1.1v81.5c0 .8-.2 1-1 1H443.8c.7-.4 1.5-.3 2.3-.4 7.3-1.2 12.5-4.9 15.4-11.8 1.7-3.9 2.4-8 2.7-12.2.4-5.4.1-10.8.2-16.2v-1.2c.3.5.4 1 .5 1.5 2.9 12.8 12.2 20.2 25.2 20.1 6.3-.1 12-2.3 17.5-5.1.5-.2.5-.5.5-1V75.9c0-.3.1-.7-.2-.7-.9.1-1.9-.4-2.7.4-4.1 3.7-8.8 6-14.4 6.4-5.9.4-10.6-1.8-13.5-7.2-1.5-2.8-2.1-5.9-2.4-9.1-.1-.9.2-1.1 1-1h32.3c.5 0 1 .1 1-.7-.1-5 .2-9.9-.8-14.8-1-5.1-2.8-9.8-6.7-13.4-6.6-6.2-18.3-6.8-26.1-1.3-5.3 3.7-8.4 9.1-10.1 15.2-.3 1.1-.6 2.3-.8 3.4h-.2V52 33.3c0-.8-.2-1.1-1.1-1.1-2.7.1-5.4 0-8.2 0-.4 0-.9-.1-1 .4-.1 1.5-.8.8-1.4.5-7.4-3.6-14.6-3.4-21.4 1.4-4.5 3.2-7.1 7.9-9 13-.9 2.4-1.3 4.9-1.8 7.5 0-2.7-.1-5.4-.6-8-1.3-7.4-5.8-12.2-13.1-13.9-4.4-1-8.9-.9-13.4-.3-3.1.4-6 1.1-8.9 2.1-.4-.6.4-1.6-.8-1.9-6.5-1.5-12.5-.8-17.8 3.5-.9.7-1.7 1.3-2.8 2.2v-5.4c0-.8-.2-1-1-1h-8.9c-.8 0-1 .2-1 1v57.8c0 .8.3 1 1 1 2.8 0 5.6-.1 8.4 0 1.2 0 1.5-.2 1.5-1.5-.1-12.8 0-25.7 0-38.5 0-.6 0-1.1.5-1.6 5.1-5 11-7 18-4.9.7.2 1.4.1 2.1.2.5 0 .7-.2.7-.7v-2.9c.3.4.4.8.6 1.2.2.4.3.8.5 1.2.8 1.7.8 1.7 2.7 1.1 4.4-1.4 8.8-2.2 13.4-1.6 3 .4 5.4 1.7 6.3 4.9.3 1 .3 2.1.5 3.2.1.9-.2 1.2-1.1 1.1-3.9-.3-7.9-.4-11.8.4-5.7 1.3-10.3 4-13.3 9.1-2.3 4-2.7 8.2-2.1 12.7.8 6.2 4 10.7 9.9 13 3.3 1.4 6.9 1.7 10.4 1.8 6.2.2 12.3-1.1 18.4-2.4 1.4-.3 1.7-.9 1.7-2.2-.1-5.6 0-11.1 0-16.7.7 3.1 1.2 6.2 2.4 9.1 1.9 4.9 4.7 9.2 9.7 11.4 6.9 3 13.6 2.2 19.8-2.4.3-.2.6-.7 1.1-.6.1 2.8 0 5.6-.8 8.3-1 3.5-3.3 5.8-6.9 6.6-1.6.4-3.2.5-4.9.4-4.4-.1-8.4-1.5-12.3-3.1-.8-.3-1.5-.4-2.3-.5-.8 0-1 .2-1 1v10.4c0 .7.2 1 .8 1.2 2.4.8 4.9 1.4 7.4 1.9 1.3.3 2.8.2 4.1.7H290.8c.1-.3.4-.2.6-.2 9.5-.9 15.6-5.9 18.3-15.1 1.2-4 1.7-8.2 1.7-12.4v-8.8c.2.3.3.6.4.9 1.4 5 4.5 8.5 9.3 10.4 3.4 1.4 6.9 1.8 10.6 1.9 6.5.2 12.9-1.2 19.2-2.6.8-.2.9-.7.9-1.4V53.9c0-2.2-.1-4.3-.5-6.4-1.2-7.4-5.2-12.4-12.6-14.4-2.8-.8-5.7-.9-8.6-.9-4.9.1-9.6.9-14.2 2.5-.5.2-.8.3-.8.9 0 3 .4 5.8 1.6 8.5.9 1.8.9 1.8 2.8 1.2 4.4-1.4 8.8-2.2 13.5-1.5 3.4.5 5.4 2.1 6.2 5.1.3 1 .3 2.1.4 3.2 0 .8-.3.9-1 .9-3.6-.3-7.2-.4-10.8.2-5.4 1-10.1 3.2-13.4 7.8-1.4 1.9-2.3 4-3 6.2v-1.3-30.2-2.8c0-.5-.1-.7-.7-.7h-8.8c-.3 0-.7 0-.7.4-.1 1.4-.8.8-1.4.5-7.5-3.7-14.8-3.4-21.7 1.6-4.5 3.3-7 8-8.8 13.1-2.1 6.1-2.2 12.4-1.8 18.7.3 5 1.4 9.9 3.7 14.4 5.4 10.4 17.7 13.5 27.2 6.7.6-.5 1.3-.9 2.1-1.5 0 3.6 0 7-1.5 10.2-1.1 2.5-3 4.1-5.6 4.8-1.8.5-3.7.6-5.6.6-4.3-.1-8.3-1.5-12.2-3.1-.8-.3-1.6-.5-2.4-.5-.8 0-1 .2-1 1v10.4c0 .6.1 1 .8 1.2 2.1.7 4.2 1.2 6.3 1.7 1.7.4 3.4.4 5.1.9H33.3c-1.1 0-1.2-.3-1.2-1.2V68.7c.5.6.3 1.4.5 2.1.6 4 1.8 7.8 3.9 11.2 3.5 5.8 8.6 9.3 15.2 10.4 6.6 1.1 13 .7 19.3-1.8.8-.3 1.2-.6 1.1-1.6-.2-1.1-.2-2.3-.3-3.8 1.9 2.6 4 4.5 6.7 5.7 3 1.4 6.3 1.9 9.5 2.1 6.9.4 13.6-.9 20.3-2.5.7-.2 1.3-.1 2 .1 6.9 2.5 13.9 3.3 21.1 1.6 6.6-1.5 11.5-5.3 13.7-12 .1-.2.1-.3.4-.3.8 3.2 2.2 6 4.7 8.2 3.9 3.4 8.6 4.4 13.5 4.7 7 .5 13.8-.9 20.6-2.5.9-.2 1.2-.6 1.2-1.5v-32c0-2-.1-4.1-.4-6.1-1-7.1-4.5-12.3-11.6-14.4-8.2-2.4-16.2-1.2-24.1 1.3-.4.1-.5.4-.5.8-.1 3.3.5 6.4 2 9.4.4.8.8 1 1.6.7 4.3-1.5 8.7-2.3 13.3-2 4.1.3 6.4 2 7.2 5.5.2 1 .3 2 .4 3 .1.9-.3.9-1 .9-3.8-.3-7.6-.5-11.3.3-6.4 1.3-11.5 4.4-14.5 10.5-.5 1-.8 2-1.2 3.2-1.4-5.6-5.2-8.8-10.3-10.8-2.7-1-5.4-2.1-8.2-3.1-1.1-.4-2.1-1-2.9-1.8-2.4-2.4-1.6-6.1 1.5-7.2 1.7-.6 3.5-.8 5.3-.7 3.6.1 6.9 1.2 10.2 2.5.7.3.9.2 1.2-.5 1.3-3 2-6 2.4-9.2.1-.7-.2-.9-.8-1.1-6.3-2.4-12.8-3.4-19.5-2.3-7.6 1.2-12.8 5.9-13.8 13.3-1 7 .9 11.7 6.7 15.3 1.9 1.2 4 2.1 6.1 3 2.6 1.1 5.3 1.7 7.7 3.3 3.4 2.2 3.7 6.6.5 9.1-1.9 1.5-4.1 2-6.5 2.1-4.3.1-8.4-.8-12.3-2.6-.7-.3-.9-.3-1.2.5l-1.5 4.5h-.1v-1.3-26.2c0-2.1-.1-4.2-.5-6.3-1.1-6.8-4.6-11.7-11.4-13.8-8.2-2.5-16.3-1.3-24.2 1.3-.7.4-.8.7-.8 1.1 0 3.2.5 6.3 2 9.3.4.9.9 1 1.7.7 4.3-1.5 8.6-2.2 13.2-1.9 4.4.3 6.8 2.3 7.4 6.4.1.6.1 1.3.2 1.9.2.9-.2 1.1-1.1 1-4.2-.3-8.3-.5-12.4.6-6.2 1.5-11 4.8-13.6 10.9-1.4 3.4-1.6 6.9-1.2 10.5.1 1.1-.1 1.6-1.2 2-3.2 1.3-6.5 1.8-9.8 1.7-6.8-.2-11-3.6-12.6-10.1-.4-1.8-.6-3.6-.7-5.5-.2-4.1.2-8.2 1.8-12.1 2-4.7 5.5-7.2 10.7-7.3 3.7-.1 7.3.4 10.7 1.8.8.3 1.1.2 1.5-.6 1.2-2.9 1.8-6 1.8-9.1 0-.7-.2-1-.9-1.3-3.2-1.3-6.6-1.9-10-2.2-6.5-.5-12.6.5-17.9 4.5-5.5 4.2-8.3 9.9-9.7 16.6-.3 1.1-.2 2.3-.7 3.4zm487.9-23.5v-3.3c0-.7-.2-.9-.9-.9h-8.9c-.9 0-1 .2-1 1.1v57.7c0 .9.3 1 1.1 1 2.8 0 5.7-.1 8.5 0 1.1 0 1.3-.3 1.3-1.3 0-13.2 0-26.3-.1-39.5 0-1.8.5-3 2-4.1 2.5-1.8 5-3.9 8.2-4.2 5.5-.6 7.8 1.3 8.6 6.1.4 2.5.5 5 .5 7.5v34.3c0 .9.2 1.2 1.1 1.2 2.9-.1 5.8-.1 8.8 0 .8 0 1.1-.2 1.1-1.1-.1-13.8.2-27.5-.2-41.3 0-.3-.1-.7.3-1 2.7-2.2 5.3-4.7 8.7-5.5 5.6-1.3 9.1.4 9.9 6 .3 2.4.5 4.8.5 7.2v34.3c0 1.1.3 1.4 1.4 1.3 2.8-.1 5.5-.1 8.3 0 1 0 1.3-.2 1.3-1.2V52.8c0-3.9-.5-7.7-1.8-11.4-1.9-5.3-5.3-9.1-11-10.2-4.8-.9-9.4-.1-13.6 2.5-2.4 1.4-4.5 3.2-6.5 5.2l-1.2-1.8c-2-2.9-4.7-4.9-8.2-5.7-5.4-1.3-10.3-.1-14.8 3-1.3.7-2.3 1.5-3.4 2.3zm-267.4 56c3.2 0 5.7-2.5 5.7-5.7 0-3.1-2.6-5.6-5.7-5.6S247 83.9 247 87c0 3.1 2.6 5.7 5.7 5.7zm-40.3 0c3.2 0 5.7-2.5 5.7-5.7 0-3.1-2.5-5.6-5.6-5.6-3.2 0-5.6 2.5-5.6 5.7-.1 3.2 2.3 5.6 5.5 5.6z"/><path class="st1" d="M437.5 113.8c-1.3-.5-2.7-.4-4.1-.7-2.5-.5-5-1.1-7.4-1.9-.6-.2-.8-.5-.8-1.2V99.6c0-.8.2-1 1-1s1.6.2 2.3.5c4 1.6 8 3 12.3 3.1 1.6 0 3.3 0 4.9-.4 3.6-.9 5.9-3.1 6.9-6.6.8-2.7.9-5.5.8-8.3-.5 0-.8.4-1.1.6-6.1 4.6-12.8 5.4-19.8 2.4-5-2.2-7.7-6.5-9.7-11.4-1.2-2.9-1.7-6-2.4-9.1 0 5.6-.1 11.1 0 16.7 0 1.3-.3 1.9-1.7 2.2-6.1 1.3-12.1 2.6-18.4 2.4-3.6-.1-7.1-.5-10.4-1.8-5.9-2.4-9.1-6.8-9.9-13-.6-4.4-.2-8.7 2.1-12.7 3-5.2 7.6-7.9 13.3-9.1 3.9-.9 7.9-.8 11.8-.4.9.1 1.2-.2 1.1-1.1-.2-1.1-.2-2.2-.5-3.2-.8-3.2-3.3-4.5-6.3-4.9-4.6-.7-9.1.2-13.4 1.6-1.8.6-1.8.6-2.7-1.1-.2-.4-.4-.8-.5-1.2-.2-.4-.3-.8-.6-1.2v2.9c0 .5-.1.7-.7.7-.7-.1-1.4 0-2.1-.2-7-2.1-12.9-.1-18 4.9-.5.5-.5 1-.5 1.6V91c0 1.2-.3 1.5-1.5 1.5-2.8-.1-5.6-.1-8.4 0-.8 0-1-.2-1-1V33.7c0-.8.3-1 1-1h8.9c.8 0 1 .2 1 1v5.4c1-.8 1.9-1.5 2.8-2.2 5.3-4.2 11.3-5 17.8-3.5 1.2.3.4 1.3.8 1.9 2.9-1 5.9-1.7 8.9-2.1 4.5-.6 8.9-.7 13.4.3 7.3 1.7 11.8 6.5 13.1 13.9.5 2.7.6 5.3.6 8 .5-2.5 1-5 1.8-7.5 1.8-5.1 4.4-9.8 9-13 6.8-4.8 14-5 21.4-1.4.6.3 1.4 1 1.4-.5 0-.6.6-.4 1-.4h8.2c.8 0 1.1.2 1.1 1.1v19.8h.2c.3-1.1.5-2.3.8-3.4 1.8-6.2 4.8-11.5 10.1-15.2 7.9-5.5 19.5-5 26.1 1.3 3.8 3.6 5.7 8.3 6.7 13.4 1 4.9.7 9.9.8 14.8 0 .9-.5.7-1 .7h-32.3c-.8 0-1.1.1-1 1 .3 3.2.9 6.2 2.4 9.1 2.9 5.4 7.6 7.6 13.5 7.2 5.5-.3 10.3-2.7 14.4-6.4.9-.8 1.8-.3 2.7-.4.3 0 .2.4.2.7v11.4c0 .4 0 .7-.5 1-5.5 2.8-11.2 5-17.5 5.1-13 .1-22.3-7.4-25.2-20.1-.1-.5-.2-1-.5-1.5v1.2c-.1 5.4.2 10.8-.2 16.2-.3 4.2-1 8.3-2.7 12.2-2.9 6.8-8.2 10.6-15.4 11.8-.8.1-1.6 0-2.3.4-1.9-.2-4-.2-6.1-.2zm16-54V46.1c0-.5.2-1-.5-1.3-3.7-1.8-7.6-3-11.8-2-4.4 1-6.8 4.2-8.2 8.1-1.6 4.4-1.7 8.9-1.5 13.5.1 3.3.6 6.6 1.9 9.7 1.5 3.5 4.1 5.2 7.8 5.3 4.4.2 8-1.7 11.4-4.3.6-.5.9-1 .9-1.8V59.8zm33.2-5.3h8.4c1.1 0 2.6.5 3.1-.2.6-.7 0-2.1-.2-3.2-.7-3.3-1.9-6.4-5.1-8.1-4-2.2-9.9-1.4-13.2 1.7-2.4 2.3-3.8 5.2-4.5 8.4-.3 1.4-.3 1.4 1.2 1.4h10.3zm-78.3 17v-5c0-2 0-2.1-2-2.3-3.1-.3-6.2-.5-9.2.6-2.9 1-4.6 2.9-4.8 6-.1.9-.1 1.8 0 2.6.3 3.1 2.2 5.1 5.3 5.6 3.3.5 6.6.3 9.9-.2.8-.1.9-.5.9-1.1-.1-2.1-.1-4.1-.1-6.2zM32.2 60.2c.6-1.1.5-2.4.7-3.6 1.4-6.6 4.2-12.4 9.7-16.6 5.3-4 11.5-4.9 17.9-4.5 3.4.2 6.8.8 10 2.2.7.3.9.6.9 1.3-.1 3.1-.6 6.2-1.8 9.1-.3.8-.7 1-1.5.6-3.4-1.4-7-1.8-10.7-1.8-5.1.1-8.7 2.5-10.7 7.3-1.6 3.9-2 8-1.8 12.1.1 1.8.3 3.7.7 5.5 1.6 6.5 5.8 9.9 12.6 10.1 3.4.1 6.7-.4 9.8-1.7 1-.4 1.3-.9 1.2-2-.4-3.6-.3-7.1 1.2-10.5 2.6-6 7.4-9.3 13.6-10.9 4.1-1 8.2-.9 12.4-.6.9.1 1.3-.1 1.1-1-.1-.6-.1-1.3-.2-1.9-.7-4.1-3-6.1-7.4-6.4-4.5-.3-8.9.4-13.2 1.9-.9.3-1.3.2-1.7-.7-1.5-2.9-2-6-2-9.3 0-.5.1-.7.6-.9 8-2.6 16.1-3.8 24.2-1.3 6.7 2.1 10.2 7 11.4 13.8.4 2.1.5 4.2.5 6.3v27.5h.1c.5-1.5 1.1-3 1.5-4.5.2-.7.5-.8 1.2-.5 3.9 1.8 8 2.7 12.3 2.6 2.4-.1 4.6-.6 6.5-2.1 3.2-2.6 2.9-6.9-.5-9.1-2.4-1.5-5.1-2.1-7.7-3.3-2.1-.9-4.2-1.8-6.1-3-5.8-3.6-7.7-8.3-6.7-15.3 1.1-7.4 6.2-12.2 13.8-13.3 6.7-1.1 13.2 0 19.5 2.3.6.2.9.4.8 1.1-.4 3.2-1.1 6.3-2.4 9.2-.3.7-.6.7-1.2.5-3.3-1.3-6.6-2.3-10.2-2.5-1.8-.1-3.6.1-5.3.7-3.1 1.1-3.9 4.9-1.5 7.2.8.8 1.9 1.4 2.9 1.8 2.7 1 5.4 2.1 8.2 3.1 5.1 1.9 8.9 5.2 10.3 10.8.4-1.1.8-2.2 1.2-3.2 2.9-6.1 8.1-9.2 14.5-10.5 3.8-.8 7.6-.6 11.3-.3.7.1 1.1 0 1-.9-.1-1-.1-2-.4-3-.8-3.4-3.1-5.2-7.2-5.5-4.6-.3-9 .4-13.3 2-.9.3-1.3.1-1.6-.7-1.5-3-2.1-6.1-2-9.4 0-.4.1-.7.5-.8 7.9-2.6 16-3.8 24.1-1.3 7.1 2.1 10.5 7.3 11.6 14.4.3 2 .4 4.1.4 6.1v32c0 .9-.3 1.3-1.2 1.5-6.8 1.6-13.6 2.9-20.6 2.5-4.9-.3-9.7-1.3-13.5-4.7-2.5-2.2-4-5-4.7-8.2-.2 0-.3.1-.4.3-2.2 6.7-7.1 10.4-13.7 12-7.1 1.7-14.2.9-21.1-1.6-.7-.2-1.3-.3-2-.1-6.7 1.6-13.4 2.9-20.3 2.5-3.3-.2-6.5-.7-9.5-2.1-2.7-1.2-4.8-3-6.7-5.7.1 1.5.1 2.7.3 3.8.2 1-.2 1.3-1.1 1.6-6.3 2.5-12.7 2.9-19.3 1.8-6.6-1.1-11.7-4.6-15.2-10.4-2.1-3.5-3.2-7.3-3.9-11.2-.1-.7 0-1.5-.5-2.1.3-2.5.3-5.5.3-8.5zm141.1 14.4v-6.2c0-.7-.2-1-.9-1-2.7-.2-5.4-.6-8.1-.1-3 .5-5.6 1.6-6.7 4.8-.4 1.3-.4 2.7-.4 4 .2 3.2 2.1 5.4 5.2 5.9 3.4.5 6.8.3 10.1-.3.6-.1.8-.3.7-.9.1-2.1.1-4.2.1-6.2zm-75.7-.1v-6.2c0-.7-.2-.9-.8-1-2.8-.3-5.6-.5-8.4-.1-5.3.9-7.7 4.2-6.8 9.6.5 2.9 2.3 4.8 5.3 5.2 3.3.5 6.6.2 9.9-.3.7-.1.9-.4.9-1.1-.2-2-.1-4-.1-6.1zm-26 11.1zM284.4 113.8c-1.7-.6-3.4-.5-5.1-.9-2.1-.5-4.3-1.1-6.3-1.7-.7-.2-.8-.5-.8-1.2V99.6c0-.8.2-1 1-1 .9 0 1.6.2 2.4.5 3.9 1.6 7.9 3 12.2 3.1 1.9 0 3.8-.1 5.6-.6 2.6-.8 4.5-2.4 5.6-4.8 1.4-3.2 1.5-6.6 1.5-10.2-.8.6-1.4 1-2.1 1.5-9.6 6.7-21.9 3.7-27.2-6.7-2.3-4.5-3.3-9.4-3.7-14.4-.4-6.3-.3-12.6 1.8-18.7 1.8-5.2 4.3-9.8 8.8-13.1 6.9-5 14.1-5.3 21.7-1.6.7.3 1.3.9 1.4-.5 0-.5.4-.4.7-.4h8.8c.5 0 .7.2.7.7v34.3c.7-2.2 1.6-4.3 3-6.2 3.3-4.6 8-6.8 13.4-7.8 3.6-.6 7.2-.5 10.8-.2.7.1 1-.1 1-.9-.1-1.1-.1-2.2-.4-3.2-.8-3-2.8-4.6-6.2-5.1-4.6-.6-9.1.2-13.5 1.5-2 .6-2 .6-2.8-1.2-1.2-2.7-1.6-5.6-1.6-8.5 0-.7.4-.8.8-.9 4.6-1.6 9.4-2.4 14.2-2.5 2.9-.1 5.8.1 8.6.9 7.4 2 11.4 6.9 12.6 14.4.3 2.1.5 4.3.5 6.4v32.2c0 .7 0 1.2-.9 1.4-6.3 1.4-12.6 2.8-19.2 2.6-3.6-.1-7.2-.5-10.6-1.9-4.8-2-7.9-5.4-9.3-10.4-.1-.3-.2-.6-.4-.9v8.8c-.1 4.2-.5 8.4-1.7 12.4-2.7 9.2-8.8 14.1-18.3 15.1-.2 0-.5-.1-.6.2-2.2-.1-4.3-.1-6.4-.1zm16.1-53.9c0-4.4-.1-8.7 0-13.1 0-1.4-.4-2-1.7-2.5-2.2-.9-4.4-1.5-6.7-1.8-5.7-.5-10 2.3-12.1 8-1.6 4.3-1.8 8.7-1.7 13.2.1 3.7.5 7.3 2.1 10.7 1.4 3.2 3.9 4.8 7.4 5 4.6.3 8.3-1.7 11.8-4.4.6-.4.8-.9.8-1.6.1-4.5.1-9 .1-13.5zm38.9 11.6v-6.2c0-.5 0-.9-.7-1-2.5-.2-4.9-.4-7.4-.2-5.7.5-8.4 3.6-8 9 .3 3.3 2.2 5.5 5.5 5.9 3.2.4 6.4.2 9.7-.2.8-.1 1-.5.9-1.2v-6.1z"/><path class="st2" d="M197 30.2c.1.1.2.2.3.2 2.2 0 3.9 1.1 5 3 .6.9 1.3 1.2 2.4 1.2h56c1.5 0 1.5 0 1 1.5-1 2.4-2 4.7-2.9 7.1-.3.9-.8 1.1-1.7 1.1H212c-1.1 0-1.5.2-1.4 1.4.1.9.1 1.8.3 2.7.6 2.7 1.7 3.7 4.4 4.1 1.5.2 2.9.3 4.4.3h24.6c1.4 0 1.4 0 .9 1.2-1 2.5-2 5-3 7.6-.3.7-.7.9-1.4.9-7-.2-14-.2-21 .3-2 .2-2.8.9-3.3 2.9-.2 1.1-.5 2.1-.7 3.2-.1.5 0 .8.6.7H262.7c-.6 1.4-1.1 2.7-1.7 3.9-.7 1.6-1.5 3.2-2.1 4.8-.3.7-.6 1-1.4 1-14.2.1-28.5.2-42.7 0-1.8 0-3.6-.1-5.4-.3-2.9-.3-4.3-1.9-4.6-4.7-.4-4.1.4-8 2.3-11.7.4-.8.5-1.1-.5-1.2-4-.6-6.3-3-7.5-6.8-.9-3-1.6-5.9-1.9-9-.1-1-.4-1.5-1.5-1.4-1.6.1-3.1 0-4.7 0-.4 0-.8 0-1.1-.5-2.4-4-4.9-8-7.4-12.2 2.1-.5 4-.5 6-.8.4 0 .8.2 1.1-.3 2.5-.2 5-.2 7.4-.2z"/><path class="st1" d="M520.1 36.7c1.1-.8 2.1-1.6 3-2.2 4.5-3.2 9.4-4.3 14.8-3 3.5.8 6.1 2.8 8.2 5.7l1.2 1.8c2.1-1.9 4.2-3.7 6.5-5.2 4.2-2.6 8.8-3.4 13.6-2.5 5.8 1.1 9.1 4.9 11 10.2 1.3 3.7 1.8 7.5 1.8 11.4.1 12.7 0 25.4 0 38.2 0 1-.3 1.3-1.3 1.2-2.8-.1-5.5-.1-8.3 0-1.1 0-1.4-.2-1.4-1.3V56.7c0-2.4-.2-4.8-.5-7.2-.8-5.6-4.2-7.3-9.9-6-3.5.8-6.1 3.3-8.7 5.5-.3.3-.3.6-.3 1 .4 13.8.1 27.5.2 41.3 0 .8-.2 1.1-1.1 1.1-2.9-.1-5.8-.1-8.8 0-.9 0-1.1-.3-1.1-1.2V56.9c0-2.5-.1-5-.5-7.5-.8-4.8-3-6.7-8.6-6.1-3.2.4-5.7 2.4-8.2 4.2-1.5 1-2 2.2-2 4.1.1 13.2 0 26.3.1 39.5 0 1-.2 1.4-1.3 1.3-2.8-.1-5.7-.1-8.5 0-.8 0-1.1-.1-1.1-1V33.7c0-.8.2-1.1 1-1.1 3 .1 5.9 0 8.9 0 .7 0 1 .2.9.9.4.9.4 1.9.4 3.2zM252.7 92.7c-3.2 0-5.7-2.6-5.7-5.7.1-3.1 2.6-5.6 5.7-5.6s5.6 2.5 5.7 5.6c.1 3.2-2.4 5.7-5.7 5.7zM212.4 92.7c-3.2 0-5.6-2.4-5.6-5.6 0-3.2 2.5-5.7 5.6-5.7 3.1 0 5.6 2.6 5.6 5.6.1 3.2-2.3 5.7-5.6 5.7z"/><path class="st0" d="M453.5 59.8v13.6c0 .8-.3 1.3-.9 1.8-3.4 2.6-7 4.4-11.4 4.3-3.7-.1-6.3-1.9-7.8-5.3-1.3-3.1-1.7-6.4-1.9-9.7-.2-4.6-.1-9.1 1.5-13.5 1.4-4 3.8-7.2 8.2-8.1 4.2-.9 8.1.2 11.8 2 .7.3.5.8.5 1.3v13.6zM486.7 54.5h-10.3c-1.5 0-1.5 0-1.2-1.4.7-3.2 2.1-6.1 4.5-8.4 3.3-3.1 9.2-3.9 13.2-1.7 3.2 1.7 4.4 4.8 5.1 8.1.2 1.1.8 2.5.2 3.2-.5.7-2 .2-3.1.2h-8.4zM408.4 71.5v6.1c0 .7-.1 1-.9 1.1-3.3.5-6.6.7-9.9.2-3.1-.4-5-2.5-5.3-5.6-.1-.9-.1-1.7 0-2.6.3-3.1 1.9-5.1 4.8-6 3-1 6.1-.9 9.2-.6 2 .2 2 .3 2 2.3.1 1.8.1 3.4.1 5.1zM173.3 74.6v6.2c0 .6-.1.8-.7.9-3.4.5-6.8.8-10.1.3-3.2-.5-5-2.7-5.2-5.9-.1-1.4-.1-2.7.4-4 1.1-3.2 3.7-4.3 6.7-4.8 2.7-.5 5.4-.2 8.1.1.7.1.9.3.9 1-.2 2-.1 4.1-.1 6.2zM97.6 74.5v6.1c0 .7-.2 1-.9 1.1-3.3.5-6.6.7-9.9.3-2.9-.4-4.8-2.3-5.3-5.2-.9-5.3 1.6-8.7 6.8-9.6 2.8-.5 5.6-.2 8.4.1.6.1.9.3.8 1 0 2.1.1 4.1.1 6.2zM71.6 85.6v-.1l.1.1zM300.5 59.9v13.6c0 .7-.2 1.2-.8 1.6-3.5 2.7-7.2 4.7-11.8 4.4-3.5-.2-5.9-1.8-7.4-5-1.5-3.4-1.9-7.1-2.1-10.7-.2-4.5.1-8.9 1.7-13.2 2.1-5.7 6.4-8.5 12.1-8 2.3.2 4.5.9 6.7 1.8 1.2.5 1.7 1.1 1.7 2.5-.2 4.3-.1 8.6-.1 13zM339.4 71.5v6.1c0 .7-.1 1-.9 1.2-3.2.5-6.4.7-9.7.2-3.3-.5-5.3-2.6-5.5-5.9-.4-5.4 2.3-8.5 8-9 2.5-.2 4.9 0 7.4.2.7.1.7.5.7 1v6.2z"/></svg>